Coordinates
version=1
nRows=18
nColumns=22
inDegrees=yes

Units are S.I. units (second, meters, Newtons, ...)
If the header above contains a line with 'inDegrees', this indicates whether rotational values are in degrees (yes) or radians (no).

endheader
time	pelvis_tilt	pelvis_list	pelvis_rotation	pelvis_tx	pelvis_ty	pelvis_tz	hip_flexion_r	hip_adduction_r	hip_rotation_r	knee_angle_r	ankle_angle_r	subtalar_angle_r	hip_flexion_l	hip_adduction_l	hip_rotation_l	knee_angle_l	ankle_angle_l	subtalar_angle_l	lumbar_extension	lumbar_bending	lumbar_rotation
      1.83000000	      0.53736375	      0.58577023	    111.49573184	     -0.30340395	      0.89193009	      0.54919567	     -9.47073336	      7.61992475	     16.60678146	    -23.24865695	     16.16463281	     -6.71304522	     24.28158956	    -10.54771117	     -4.02152079	    -10.48131453	      2.66819912	     13.49750746	     -8.10820768	      0.34360501	      6.54304478
      1.84000000	      0.46214242	      0.71445338	    110.89078887	     -0.30956076	      0.89113357	      0.54105975	    -10.03688670	      7.30504022	     17.03074248	    -23.79098672	     15.91171509	     -6.37461857	     24.53371665	    -10.35780882	     -3.17378052	    -12.32220712	      2.57197564	     12.24405129	     -8.19232892	      0.34578790	      6.20987648
      1.85000000	      0.37870649	      0.76798709	    110.25282130	     -0.31576007	      0.89037175	      0.53268319	    -10.48913922	      6.94654386	     17.42619315	    -24.41798571	     15.56820480	     -5.95361557	     24.75515747	    -10.12101425	     -2.40567934	    -14.12794028	      2.35501723	     10.98561150	     -8.16353601	      0.30115693	      5.85726584
      1.86000000	      0.30796015	      0.75231007	    109.58041189	     -0.32196384	      0.88965035	      0.52409385	    -10.80827019	      6.57430149	     17.78595248	    -25.14890874	     15.05117892	     -5.44378182	     24.95784924	     -9.87437610	     -1.76579328	    -15.87101154	      2.00030582	      9.77261640	     -8.02392394	      0.23615665	      5.49393869
      1.87000000	      0.24402980	      0.65940280	    108.85506899	     -0.32810143	      0.88898234	      0.51528691	    -10.96966955	      6.18872417	     18.13672668	    -26.01101583	     14.33369552	     -4.86320687	     25.14362356	     -9.63780755	     -1.32568869	    -17.52303653	      1.50784974	      8.67527919	     -7.76928111	      0.13771555	      5.13062471
      1.88000000	      0.19356368	      0.52693377	    108.10369368	     -0.33420194	      0.88837667	      0.50630798	    -11.00166266	      5.81354715	     18.42895289	    -27.00477889	     13.47821243	     -4.19376444	     25.33973878	     -9.43967910	     -1.12147690	    -19.16714592	      1.00243967	      7.67430773	     -7.44391166	      0.03561596	      4.77496534
      1.89000000	      0.15886886	      0.38042622	    107.32087023	     -0.34015094	      0.88789365	      0.49716715	    -10.89723681	      5.47606136	     18.65817150	    -28.17129216	     12.36549052	     -3.49756429	     25.51815986	     -9.31375884	     -1.14894272	    -20.78437640	      0.52312362	      6.83061886	     -7.08325243	     -0.07231428	      4.41278259
      1.90000000	      0.11881464	      0.23631237	    106.50935763	     -0.34597521	      0.88758691	      0.48790334	    -10.66102204	      5.16312069	     18.81721358	    -29.53464844	     10.97959156	     -2.81918917	     25.64464310	     -9.24346156	     -1.37958634	    -22.35380419	      0.16748624	      6.14481398	     -6.72070517	     -0.18944760	      4.04657085
      1.91000000	      0.05347058	      0.12014789	    105.67802361	     -0.35164206	      0.88750567	      0.47853822	    -10.30157426	      4.86392147	     18.85207630	    -31.11498502	      9.31682975	     -2.18072884	     25.69012978	     -9.21596553	     -1.79510024	    -23.88281610	      0.01330992	      5.58503954	     -6.39509192	     -0.33769382	      3.66462577
      1.92000000	     -0.06177235	      0.05441341	    104.82286061	     -0.35715248	      0.88769481	      0.46912114	     -9.82826708	      4.55469461	     18.75000448	    -32.93143920	      7.39676301	     -1.63811130	     25.61567705	     -9.20373413	     -2.36954772	    -25.35840657	      0.07278553	      5.14818282	     -6.14870597	     -0.53166913	      3.29959978
      1.93000000	     -0.25082431	      0.06031590	    103.94388520	     -0.36249549	      0.88820470	      0.45970354	     -9.24420139	      4.20452287	     18.47210875	    -34.99989175	      5.21257059	     -1.25166635	     25.36275014	     -9.16664724	     -3.04343863	    -26.71957545	      0.32319114	      4.84004333	     -6.01672626	     -0.79715759	      2.95887956
      1.94000000	     -0.51496562	      0.11177175	    103.06475843	     -0.36770880	      0.88896986	      0.45031934	     -8.52499228	      3.79754021	     18.02417544	    -37.30335769	      2.82669911	     -0.95855218	     24.97049555	     -9.07645777	     -3.81896825	    -27.97193604	      0.78475085	      4.57553405	     -5.96683366	     -1.13779279	      2.56767574
      1.95000000	     -0.84629758	      0.22506623	    102.17185277	     -0.37273810	      0.89001197	      0.44104327	     -7.66652520	      3.33819689	     17.44362500	    -39.85224075	      0.27375178	     -0.83122808	     24.39561331	     -8.92823496	     -4.63935539	    -29.04380656	      1.36303123	      4.43223422	     -6.02301739	     -1.54620075	      2.17357480
      1.96000000	     -1.22715183	      0.36469953	    101.25926703	     -0.37755734	      0.89124021	      0.43194734	     -6.62500448	      2.83035166	     16.78588819	    -42.63757767	     -2.37684323	     -0.81818424	     23.68505858	     -8.72723887	     -5.51519821	    -29.92209810	      2.01575077	      4.35818690	     -6.14405477	     -2.01048205	      1.76415647
      1.97000000	     -1.64762102	      0.50694247	    100.32346180	     -0.38213518	      0.89258973	      0.42307507	     -5.37992743	      2.27948422	     16.09772859	    -45.63252976	     -5.02241359	     -0.92308862	     22.87066842	     -8.47598253	     -6.46392046	    -30.59980666	      2.68210934	      4.33139067	     -6.29984542	     -2.52633841	      1.33466508
      1.98000000	     -2.07958794	      0.64965476	     99.36561443	     -0.38645893	      0.89403105	      0.41449300	     -3.94118184	      1.72517865	     15.44615543	    -48.78600510	     -7.64746263	     -1.09473506	     21.96308191	     -8.18479791	     -7.41641923	    -31.05713824	      3.33062022	      4.37276161	     -6.48986120	     -3.05999008	      0.91237597
      1.99000000	     -2.52085883	      0.76054887	     98.38250323	     -0.39048967	      0.89548241	      0.40618923	     -2.30531345	      1.18020084	     14.87851811	    -52.03036131	    -10.13821145	     -1.31447777	     21.00388577	     -7.86017607	     -8.42598881	    -31.30286517	      3.95395296	      4.43480880	     -6.66796345	     -3.61917948	      0.45073647
      2.00000000	     -2.93199677	      0.85883662	     97.38368474	     -0.39428325	      0.89694831	      0.39819335	     -0.52320473	      0.69715631	     14.40099076	    -55.27050698	    -12.45820315	     -1.46812713	     19.99485273	     -7.53023517	     -9.45214815	    -31.34748608	      4.52403648	      4.50858690	     -6.85151029	     -4.13772011	      0.00277298
